<?xml version="1.0" encoding="utf-8"?>
<!-- Generator: Adobe Illustrator 22.0.1, SVG Export Plug-In . SVG Version: 6.00 Build 0)  -->
<svg version="1.1" id="Layer_1" xmlns="http://www.w3.org/2000/svg" xmlns:xlink="http://www.w3.org/1999/xlink" x="0px" y="0px"
	 viewBox="0 0 216.3 24.8" style="enable-background:new 0 0 216.3 24.8;" xml:space="preserve">
<style type="text/css">
	.st0{fill:#FFFFFF;}
</style>
<path class="st0" d="M179.3,9.7c2.5,0.2,3.7-0.9,3.7-3.5c0-1.9-0.8-3.1-2.7-3.1c-2,0-2.7,1.4-2.6,3.1h-1.6c-0.2-2.5,1.3-4.5,4-4.5
	c2.9,0,4.5,1.1,4.5,4.2c0,2-0.5,3.8-2.7,4.3l0,0c2.4,0.2,2.9,2.2,2.9,4.2c0,3.1-1.5,4.9-4.3,4.9c-3,0-4.7-1.4-4.6-4.5h1.6
	c0,1.9,0.8,3.1,2.8,3.1c2.3,0,2.9-1.5,2.9-3.3c0-3-0.8-4.1-3.9-3.9L179.3,9.7L179.3,9.7z M193.7,5.9c-0.1-1.7-0.8-2.8-2.5-2.8
	c-2.9,0-3,3.1-3,5.7v1.5l0,0c0.6-1.3,1.9-1.9,3.4-1.9c4.1,0,3.8,4.3,3.8,4.8c0,3.3-0.4,6.2-4.2,6.2c-4.2,0-4.6-2.4-4.6-5.9V8.1
	c0-4.2,0.8-6.2,4.6-6.2c2.7,0,3.9,1.4,4,4.1h-1.5V5.9z M191.2,9.8c-1.8,0-3,1.2-3,4.1c0,0.1-0.3,4.3,2.9,4.3c2.7,0,2.8-2.4,2.8-4.5
	C193.9,11.1,193.2,9.8,191.2,9.8z M206.2,13.9c0,2.9-0.7,5.6-4.4,5.6c-2.9,0-4.4-1.4-4.4-4.4h1.6c0,1.9,0.7,3.1,2.8,3.1
	c2.6,0,2.9-2.3,2.9-4.3c0-2.1-0.2-4.3-2.9-4.3c-1.1,0-2.4,0.6-2.7,1.8h-1.4V2.1h7.9v1.3h-6.4v6.1c1-0.9,1.7-1.3,3-1.3
	C206.3,8.3,206.2,11.8,206.2,13.9z M1.2,2.2h7.2c2,0,4.7,0.2,6.5,1.4c2.5,1.7,3.2,4.5,3.2,7.1c0,3.8-1.2,6.6-4.7,7.9
	c-1.7,0.7-3.8,0.7-5,0.7H1.2V2.2z M6,16h2c3.1,0,5.2-1.4,5.2-5.3c0-5.2-3.9-5.2-5.3-5.2H6V16z M23.3,14.3c0,0.6,0,2.9,2.3,2.9
	c1.2,0,1.9-0.6,2-1.7h4.1c-0.3,3-3.1,4.1-6.2,4.1c-4.1,0-6.4-2.1-6.4-6c0-4,1.9-6.6,6.3-6.6c3.3,0,4.8,1.3,5.6,3
	c0.5,1,0.7,2.2,0.7,4.2h-8.4V14.3z M27.6,11.8c0-0.7-0.2-2.5-2.1-2.5s-2.1,1.9-2.2,2.5H27.6z M41.1,11.6c0-1.1-0.4-2-1.6-2
	c-1.6,0-2,1.7-2,3.7c0,3.1,0.9,3.8,2,3.8c1.5,0,1.6-1.5,1.6-2.4h4.5c0,3-2.4,4.9-6,4.9c-3.8,0-6.7-2-6.7-6.3c0-4.7,3.3-6.3,6.6-6.3
	c1.3,0,3.4,0.2,4.8,1.7c1,1.1,1.1,2.2,1.2,2.9H41.1z M47.1,2.3h4.5v3.2h-4.5V2.3z M47.2,7.4h4.4v11.9h-4.4V7.4z M57.7,15.4
	c0,0.2,0,0.7,0.2,1.1s0.5,0.7,1.3,0.7c1,0,1.3-0.7,1.3-1.2c0-0.8-0.7-1.1-1.7-1.3L56.4,14c-0.7-0.2-2.9-0.8-2.9-3.2
	c0-1.2,0.6-2.2,1.4-2.7c1-0.7,2.5-1,4.2-1c2.6,0,5.2,0.7,5.4,4h-4.2c0-0.4,0-0.8-0.2-1.2C60,9.5,59.7,9.3,59,9.3s-1.3,0.3-1.3,1
	s0.5,0.9,1.2,1.1l3.2,0.9c1.1,0.3,2.8,0.9,2.8,3.3c0,4-4.7,4-5.7,4c-2.4,0-5.9-0.4-5.8-4.2C53.4,15.4,57.7,15.4,57.7,15.4z
	 M66.5,2.3H71v3.2h-4.5V2.3z M66.6,7.4H71v11.9h-4.4V7.4z M79.9,7c3.9,0,6.9,1.9,6.9,6.2c0,1.7-0.5,3.5-1.7,4.7
	c-1,1-2.5,1.7-4.9,1.7c-2.6,0-4.3-0.6-5.5-1.8c-1.4-1.3-1.7-3.1-1.7-4.5C72.9,9.7,75.1,7,79.9,7z M78.1,16.1
	c0.5,0.9,1.3,0.9,1.7,0.9c1.9,0,2.3-2.1,2.3-3.8c0-2.1-0.5-3.8-2.3-3.8c-2,0-2.3,2-2.3,3.8C77.5,14.1,77.6,15.3,78.1,16.1z
	 M88.5,9.9l-0.1-2.5h4.4v1.8c0.5-0.9,1.5-2.1,3.9-2.1c4.3,0,4.3,3.3,4.3,4.9v7.2h-4.4v-6.8c0-0.8,0-2.5-1.8-2.5c-2,0-2,2.1-2,2.5
	v6.8h-4.4L88.5,9.9L88.5,9.9z M107.7,13.9c0,0.7,0.1,2.6,2.9,2.6c0.4,0,2.5,0,2.5-1.9c0-0.8-0.3-1.3-1.5-1.7l-4.2-1.1
	c-1.2-0.3-4.2-1.1-4.2-4.7c0-2.8,2.1-5.3,7.2-5.3c6.7,0,6.9,3.6,7,5.4h-4.8c0-0.5,0-2.4-2.2-2.4c-1.4,0-2.2,0.8-2.2,1.8
	c0,1.3,1,1.6,1.7,1.8l3.2,0.8c2.3,0.6,5,1.3,5,4.9c0,3.8-3.3,5.5-7.5,5.5c-1.8,0-4.6-0.3-6.2-2c-1.3-1.4-1.3-3.1-1.3-3.8L107.7,13.9
	L107.7,13.9z M123.9,7.4v1.7c0.4-0.6,1.4-2,3.9-2c2,0,5.1,1.1,5.1,6c0,4.6-2.6,6.4-5.3,6.4c-2.1,0-3-1.1-3.6-1.7v5.9h-4.4V9.4
	c0-1.3-0.1-1.4-0.1-1.9L123.9,7.4L123.9,7.4z M126.1,16.9c1.9,0,2.2-2,2.2-3.8c0-1.1-0.2-3.4-2.1-3.4c-2.3,0-2.3,3-2.3,3.6
	C124,14.3,124.1,16.9,126.1,16.9z M142.1,19.3c-0.1-0.4-0.1-0.9-0.1-1.7c-0.5,0.8-1.5,1.9-3.9,1.9c-2.9,0-4.2-1.6-4.2-3.7
	c0-3.2,3-4.4,8.1-4.2c0-1.3-0.1-2.5-1.5-2.5c-0.8,0-1.6,0.4-1.6,1.8h-4.3c0-0.5,0-1.6,0.9-2.5s2.8-1.5,4.9-1.5
	c1.1,0,3.3,0.1,4.6,1.4c0.8,0.7,1,1.8,1,3.1V17c0,0.9,0,1.1,0.2,2.3H142.1z M138.3,15.4c0,0.9,0.6,1.6,1.6,1.6
	c0.5,0,1.3-0.2,1.7-1.1c0.4-0.8,0.4-1.7,0.3-2.2C140.1,13.7,138.3,13.7,138.3,15.4z M156,11.6c0-1.1-0.4-2-1.6-2c-1.6,0-2,1.7-2,3.7
	c0,3.1,0.9,3.8,2,3.8c1.5,0,1.6-1.5,1.6-2.4h4.5c0,3-2.4,4.9-6,4.9c-3.8,0-6.7-2-6.7-6.3c0-4.7,3.3-6.3,6.6-6.3
	c1.3,0,3.4,0.2,4.8,1.7c1,1.1,1.1,2.2,1.2,2.9H156z M165.4,14.3c0,0.6,0,2.9,2.3,2.9c1.2,0,1.9-0.6,2-1.7h4.1
	c-0.3,3-3.1,4.1-6.2,4.1c-4.1,0-6.4-2.1-6.4-6c0-4,1.9-6.6,6.3-6.6c3.3,0,4.8,1.3,5.6,3c0.5,1,0.7,2.2,0.7,4.2h-8.4V14.3z
	 M169.7,11.8c0-0.7-0.2-2.5-2.1-2.5c-1.9,0-2.1,1.9-2.2,2.5H169.7z M215.2,5.3c0,2-1.6,3.5-3.6,3.5S208,7.2,208,5.3s1.6-3.5,3.6-3.5
	C213.6,1.8,215.2,3.4,215.2,5.3z M208.9,5.3c0,1.6,1.1,2.8,2.7,2.8c1.5,0,2.7-1.2,2.7-2.8s-1.1-2.8-2.7-2.8
	C210.1,2.5,208.9,3.8,208.9,5.3z M211.1,7.1h-0.8V3.7c0.3-0.1,0.8-0.1,1.3-0.1c0.7,0,1,0.1,1.2,0.3c0.2,0.1,0.3,0.4,0.3,0.8
	s-0.3,0.7-0.7,0.8l0,0c0.3,0.1,0.5,0.4,0.6,0.9s0.2,0.7,0.3,0.9h-0.9c-0.1-0.1-0.2-0.4-0.3-0.9c-0.1-0.4-0.3-0.6-0.7-0.6H211
	L211.1,7.1L211.1,7.1z M211.1,5.2h0.4c0.4,0,0.8-0.1,0.8-0.5c0-0.3-0.2-0.5-0.7-0.5c-0.2,0-0.4,0-0.4,0v1H211.1z"/>
</svg>
